# File created by Blade
# Date/Time:  Fri Jan 16 17:45:47 2015
#---------------------------------------------------------
:version 1.10
:name HOM
:units
  mass 1.0
  length 1.000000
  angle deg
:documentation
     Acclaim Skeleton File
:root
   axis xyz
   order TX TY TZ RX RY RZ
   position 0.000000 0.000000 0.000000
   orientation 0 0 0
:bonedata
   begin
      id 1
      name Spine_dum
      direction 0.000000 1.000000 0.000000
      length 7.170412
      axis 0.0 0.0 0.0 xyz
   end
   begin
      id 2
      name LeftUpLeg_dum
      direction 1.000000 0.000000 0.000000
      length 4.318350
      axis 0.0 0.0 0.0 xyz
   end
   begin
      id 3
      name RightUpLeg_dum
      direction -1.000000 0.000000 0.000000
      length 4.318350
      axis 0.0 0.0 0.0 xyz
   end
   begin
      id 4
      name Spine
      direction 0.000000 1.000000 0.000000
      length 0.000000
      axis 0.0 0.0 0.0 xyz
      dof rx ry rz
   end
   begin
      id 5
      name Spine_dum1
      direction 0.000000 1.000000 0.000000
      length 14.276153
      axis 0.0 0.0 0.0 xyz
   end
   begin
      id 6
      name Spine_dum2
      direction 0.000000 1.000000 0.000000
      length 10.718243
      axis 0.0 0.0 0.0 xyz
   end
   begin
      id 7
      name Spine_dum3
      direction 0.000000 1.000000 0.000000
      length 10.718243
      axis 0.0 0.0 0.0 xyz
   end
   begin
      id 8
      name Head
      direction 0.000000 1.000000 0.000000
      length 4.527550
      axis 0.0 0.0 0.0 xyz
      dof rx ry rz
   end
   begin
      id 9
      name LeftShoulder
      direction 1.000000 0.000000 0.000000
      length 7.058872
      axis 0.0 0.0 -90.0 xyz
      dof rx ry rz
   end
   begin
      id 10
      name LeftArm
      direction 1.000000 0.000000 0.000000
      length 10.955525
      axis 0.0 0.0 -90.0 xyz
      dof rx ry rz
   end
   begin
      id 11
      name LeftForeArm
      direction 1.000000 0.000000 0.000000
      length 8.193716
      axis 0.0 0.0 -90.0 xyz
      dof ry rz rx
   end
   begin
      id 12
      name LeftHand
      direction 0.000000 0.000000 0.000000
      length 0.000000
      axis 0.0 0.0 -90.0 xyz
      dof rx ry rz
   end
   begin
      id 13
      name LeftHand_dum1
      direction 0.000000 0.000000 0.000000
      length 0.000000
      axis 0.0 0.0 -90.0 xyz
   end
   begin
      id 14
      name LeftHand_dum2
      direction 1.000000 0.000000 0.000000
      length 3.937000
      axis 0.0 0.0 -90.0 xyz
   end
   begin
      id 15
      name LeftHandThumb1
      direction 0.000000 0.000000 1.000000
      length 3.937000
      axis 0.0 0.0 -90.0 xyz
      dof rx rz ry
   end
   begin
      id 16
      name RightShoulder
      direction -1.000000 0.000000 0.000000
      length 7.058872
      axis 0.0 0.0 90.0 xyz
      dof rx ry rz
   end
   begin
      id 17
      name RightArm
      direction -1.000000 0.000000 0.000000
      length 10.955525
      axis 0.0 0.0 90.0 xyz
      dof rx ry rz
   end
   begin
      id 18
      name RightForeArm
      direction -1.000000 0.000000 0.000000
      length 8.193716
      axis 0.0 0.0 90.0 xyz
      dof ry rz rx
   end
   begin
      id 19
      name RightHand
      direction 0.000000 0.000000 0.000000
      length 0.000000
      axis 0.0 0.0 90.0 xyz
      dof rx ry rz
   end
   begin
      id 20
      name RightHand_dum1
      direction 0.000000 0.000000 0.000000
      length 0.000000
      axis 0.0 0.0 90.0 xyz
   end
   begin
      id 21
      name RightHand_dum2
      direction -1.000000 0.000000 0.000000
      length 3.937000
      axis 0.0 0.0 90.0 xyz
   end
   begin
      id 22
      name RightHandThumb1
      direction 0.000000 0.000000 1.000000
      length 3.937000
      axis 0.0 0.0 90.0 xyz
      dof rx rz ry
   end
   begin
      id 23
      name LeftUpLeg
      direction 0.000000 -1.000000 0.000000
      length 17.323638
      axis 0.0 0.0 0.0 xyz
      dof rx ry rz
   end
   begin
      id 24
      name LeftLeg
      direction 0.000000 -1.000000 0.000000
      length 16.270368
      axis 0.0 0.0 0.0 xyz
      dof rx ry rz
   end
   begin
      id 25
      name LeftFoot
      direction 0.000000 -0.258819 0.965926
      length 4.922846
      axis 15.0 0.0 0.0 xyz
      dof rx ry rz
   end
   begin
      id 26
      name LeftToeBase
      direction 0.000000 0.000000 1.000000
      length 2.952750
      axis 0.0 0.0 0.0 xyz
      dof rx ry rz
   end
   begin
      id 27
      name RightUpLeg
      direction 0.000000 -1.000000 0.000000
      length 17.323638
      axis 0.0 0.0 0.0 xyz
      dof rx ry rz
   end
   begin
      id 28
      name RightLeg
      direction 0.000000 -1.000000 0.000000
      length 16.270368
      axis 0.0 0.0 0.0 xyz
      dof rx ry rz
   end
   begin
      id 29
      name RightFoot
      direction 0.000000 -0.258819 0.965926
      length 4.922846
      axis 15.0 0.0 0.0 xyz
      dof rx ry rz
   end
   begin
      id 30
      name RightToeBase
      direction 0.000000 0.000000 1.000000
      length 2.952750
      axis 0.0 0.0 0.0 xyz
      dof rx ry rz
   end
:hierarchy
   begin
      root Spine_dum LeftUpLeg_dum RightUpLeg_dum
      Spine_dum Spine
      LeftUpLeg_dum LeftUpLeg
      RightUpLeg_dum RightUpLeg
      Spine Spine_dum1 Spine_dum2 Spine_dum3
      Spine_dum1 Head
      Spine_dum2 LeftShoulder
      Spine_dum3 RightShoulder
      LeftShoulder LeftArm
      LeftArm LeftForeArm
      LeftForeArm LeftHand
      LeftHand LeftHand_dum1 LeftHand_dum2
      LeftHand_dum1 LeftHandThumb1
      RightShoulder RightArm
      RightArm RightForeArm
      RightForeArm RightHand
      RightHand RightHand_dum1 RightHand_dum2
      RightHand_dum1 RightHandThumb1
      LeftUpLeg LeftLeg
      LeftLeg LeftFoot
      LeftFoot LeftToeBase
      RightUpLeg RightLeg
      RightLeg RightFoot
      RightFoot RightToeBase
   end

# File created by Blade
# Date/Time:  Fri Jan 16 17:45:28 2015
# Frame Rate: 120.000 fps
#------------------------------------------------------
:FULLY-SPECIFIED
:DEGREES
2639
root -5.166570 35.200909 -9.749324 -1.949251 -5.234084 -6.114385
Spine -1.932258 -2.566667 10.413242
Head 7.925388 1.647673 -8.688223
LeftShoulder -19.529802 14.747740 -17.078124
LeftArm 19.207038 2.016204 -74.079442
LeftForeArm 3.965864 -0.000000 13.579666
LeftHand 1.951445 -0.000000 -6.027076
LeftHandThumb1 -26.253704 0.000000 33.147579
RightShoulder -5.344555 4.300912 4.453024
RightArm -11.315278 61.907091 63.086943
RightForeArm 15.634547 -0.000000 105.019431
RightHand 2.766107 0.000000 -32.666475
RightHandThumb1 -24.326973 -0.000000 -32.862282
LeftUpLeg 12.440389 14.584086 7.132087
LeftLeg -9.462267 -0.000000 0.000000
LeftFoot -15.840248 27.508324 -7.639991
LeftToeBase 23.080583 -0.000000 -0.000000
RightUpLeg 8.783506 -4.577680 3.861019
RightLeg -4.420332 -0.000000 0.000000
RightFoot -4.678662 -27.559238 4.130826
RightToeBase 13.754063 -0.000000 -0.000000
2640
root -5.169377 35.200953 -9.752640 -1.947343 -5.321576 -6.112809
Spine -1.900372 -2.493152 10.390019
Head 7.915931 1.657693 -8.639241
LeftShoulder -19.515125 14.745374 -17.065411
LeftArm 19.190654 2.037537 -74.107020
LeftForeArm 4.000447 -0.000000 13.569241
LeftHand 1.935859 0.000000 -6.146257
LeftHandThumb1 -26.253704 0.000000 33.147579
RightShoulder -5.359585 4.264033 4.557735
RightArm -11.183181 61.884031 63.362601
RightForeArm 15.642326 -0.000000 105.421985
RightHand 2.794848 -0.000000 -32.982231
RightHandThumb1 -24.326973 -0.000000 -32.862282
LeftUpLeg 12.457993 14.656542 7.141810
LeftLeg -9.460623 -0.000000 0.000000
LeftFoot -15.842281 27.501278 -7.649729
LeftToeBase 23.059339 -0.000000 -0.000000
RightUpLeg 8.752841 -4.497450 3.869732
RightLeg -4.381295 -0.000000 0.000000
RightFoot -4.692409 -27.570874 4.095486
RightToeBase 13.747069 -0.000000 -0.000000
2641
root -5.172922 35.200932 -9.749991 -1.980245 -5.351441 -6.107977
Spine -1.850973 -2.470738 10.354532
Head 7.910762 1.651748 -8.582094
LeftShoulder -19.499199 14.757465 -17.046100
LeftArm 19.177932 2.081019 -74.130549
LeftForeArm 4.030763 -0.000000 13.563635
LeftHand 1.974061 0.000000 -6.158252
LeftHandThumb1 -26.253704 0.000000 33.147579
RightShoulder -5.391223 4.212688 4.664729
RightArm -10.955347 61.943293 63.729088
RightForeArm 15.579885 -0.000000 105.747831
RightHand 2.934133 -0.000000 -33.046302
RightHandThumb1 -24.326973 -0.000000 -32.862282
LeftUpLeg 12.497082 14.618906 7.147202
LeftLeg -9.450793 -0.000000 0.000000
LeftFoot -15.870887 27.556263 -7.694964
LeftToeBase 23.094720 -0.000000 -0.000000
RightUpLeg 8.792177 -4.479543 3.868900
RightLeg -4.389136 -0.000000 0.000000
RightFoot -4.683962 -27.576239 4.061216
RightToeBase 13.774055 -0.000000 -0.000000
2642
root -5.169581 35.201459 -9.742133 -2.019900 -5.378522 -6.112089
Spine -1.807281 -2.483680 10.370230
Head 7.909271 1.664967 -8.576141
LeftShoulder -19.523175 14.756597 -17.064112
LeftArm 19.152482 2.119975 -74.173999
LeftForeArm 4.141713 -0.000000 13.544111
LeftHand 1.992799 -0.000000 -6.177970
LeftHandThumb1 -26.253704 0.000000 33.147579
RightShoulder -5.402885 4.137891 4.698890
RightArm -10.630722 62.005102 64.236130
RightForeArm 15.546877 -0.000000 106.037912
RightHand 2.951047 -0.000000 -33.145117
RightHandThumb1 -24.326973 -0.000000 -32.862282
LeftUpLeg 12.566057 14.577025 7.150484
LeftLeg -9.466085 -0.000000 0.000000
LeftFoot -15.876562 27.612322 -7.721011
LeftToeBase 23.042858 -0.000000 -0.000000
RightUpLeg 8.845307 -4.511024 3.855468
RightLeg -4.394522 -0.000000 0.000000
RightFoot -4.695339 -27.511774 4.119855
RightToeBase 13.743968 -0.000000 -0.000000
2643
root -5.170481 35.201385 -9.739669 -2.040773 -5.405905 -6.118218
Spine -1.768939 -2.480599 10.367697
Head 7.896363 1.684439 -8.535047
LeftShoulder -19.535065 14.768192 -17.065768
LeftArm 19.150541 2.129066 -74.223018
LeftForeArm 4.168913 -0.000000 13.521724
LeftHand 2.034259 0.000000 -6.104046
LeftHandThumb1 -26.253704 0.000000 33.147579
RightShoulder -5.417274 4.091544 4.764706
RightArm -10.393027 61.987410 64.614288
RightForeArm 15.559121 -0.000000 106.303797
RightHand 2.891480 0.000000 -33.254207
RightHandThumb1 -24.326973 -0.000000 -32.862282
LeftUpLeg 12.603070 14.567528 7.162238
LeftLeg -9.473706 -0.000000 0.000000
LeftFoot -15.887211 27.631098 -7.743795
LeftToeBase 23.025279 -0.000000 -0.000000
RightUpLeg 8.872906 -4.512015 3.856831
RightLeg -4.400546 -0.000000 0.000000
RightFoot -4.691990 -27.477381 4.125857
RightToeBase 13.736331 -0.000000 -0.000000
2644
root -5.171740 35.201561 -9.740347 -2.046209 -5.438659 -6.120163
Spine -1.742499 -2.479647 10.352825
Head 7.881497 1.686534 -8.486801
LeftShoulder -19.537521 14.768423 -17.054653
LeftArm 19.120402 2.164708 -74.258643
LeftForeArm 4.194206 -0.000000 13.525655
LeftHand 2.011347 -0.000000 -6.091505
LeftHandThumb1 -26.253704 0.000000 33.147579
RightShoulder -5.412958 4.052730 4.842338
RightArm -10.168203 61.957951 64.961552
RightForeArm 15.574291 -0.000000 106.495338
RightHand 3.018663 -0.000000 -33.342404
RightHandThumb1 -24.326973 -0.000000 -32.862282
LeftUpLeg 12.611748 14.577052 7.166885
LeftLeg -9.462858 -0.000000 0.000000
LeftFoot -15.902671 27.647348 -7.755043
LeftToeBase 23.032783 -0.000000 -0.000000
RightUpLeg 8.873073 -4.496293 3.860914
RightLeg -4.398099 -0.000000 0.000000
RightFoot -4.683283 -27.475987 4.107467
RightToeBase 13.745307 -0.000000 -0.000000
2645
root -5.175637 35.201080 -9.743262 -2.053383 -5.487938 -6.117610
Spine -1.698752 -2.452641 10.315859
Head 7.854101 1.674433 -8.410703
LeftShoulder -19.525895 14.770565 -17.020923
LeftArm 19.104763 2.186296 -74.302953
LeftForeArm 4.233272 -0.000000 13.518745
LeftHand 2.018703 -0.000000 -6.070927
LeftHandThumb1 -26.253704 0.000000 33.147579
RightShoulder -5.410604 4.022496 4.936559
RightArm -9.964201 61.831503 65.259651
RightForeArm 15.585685 -0.000000 106.667172
RightHand 3.053204 -0.000000 -33.506117
RightHandThumb1 -24.326973 -0.000000 -32.862282
LeftUpLeg 12.625340 14.610354 7.175647
LeftLeg -9.459436 -0.000000 0.000000
LeftFoot -15.897133 27.661201 -7.750940
LeftToeBase 23.024579 -0.000000 -0.000000
RightUpLeg 8.863712 -4.461428 3.865975
RightLeg -4.378552 -0.000000 0.000000
RightFoot -4.694196 -27.468243 4.079348
RightToeBase 13.779853 -0.000000 -0.000000
2646
root -5.175000 35.201732 -9.742292 -2.056477 -5.499598 -6.131554
Spine -1.684589 -2.476481 10.328526
Head 7.844890 1.673118 -8.377264
LeftShoulder -19.527087 14.796219 -17.028002
LeftArm 19.083319 2.231108 -74.331067
LeftForeArm 4.211879 -0.000000 13.534862
LeftHand 2.056058 -0.000000 -6.057620
LeftHandThumb1 -26.253704 0.000000 33.147579
RightShoulder -5.399365 3.993649 4.971749
RightArm -9.673516 61.803988 65.680771
RightForeArm 15.633216 -0.000000 106.778776
RightHand 3.001990 0.000000 -33.402825
RightHandThumb1 -24.326973 -0.000000 -32.862282
LeftUpLeg 12.634864 14.606513 7.187948
LeftLeg -9.462668 -0.000000 0.000000
LeftFoot -15.909162 27.679758 -7.752893
LeftToeBase 23.054784 -0.000000 -0.000000
RightUpLeg 8.872457 -4.484739 3.873208
RightLeg -4.386321 -0.000000 0.000000
RightFoot -4.685864 -27.410882 4.192913
RightToeBase 13.621797 -0.000000 -0.000000
2647
root -5.174529 35.201699 -9.742533 -2.058414 -5.537695 -6.136321
Spine -1.663282 -2.473088 10.320700
Head 7.833336 1.646301 -8.324388
LeftShoulder -19.518419 14.813016 -17.010583
LeftArm 19.050843 2.246419 -74.386970
LeftForeArm 4.225439 -0.000000 13.538519
LeftHand 2.050729 -0.000000 -6.131221
LeftHandThumb1 -26.253704 0.000000 33.147579
RightShoulder -5.378479 3.943380 5.011361
RightArm -9.404448 61.736728 66.040370
RightForeArm 15.514229 -0.000000 106.806970
RightHand 3.142631 -0.000000 -33.340584
RightHandThumb1 -24.326973 -0.000000 -32.862282
LeftUpLeg 12.647860 14.620711 7.192299
LeftLeg -9.466792 -0.000000 0.000000
LeftFoot -15.908677 27.703572 -7.753861
LeftToeBase 23.043373 -0.000000 -0.000000
RightUpLeg 8.868114 -4.473170 3.876749
RightLeg -4.378406 -0.000000 0.000000
RightFoot -4.667513 -27.416096 4.090704
RightToeBase 13.724119 -0.000000 -0.000000
2648
root -5.174246 35.201894 -9.743720 -2.059336 -5.569498 -6.139746
Spine -1.637863 -2.486727 10.310885
Head 7.816237 1.611183 -8.275289
LeftShoulder -19.527189 14.842281 -17.015478
LeftArm 19.047961 2.247993 -74.432019
LeftForeArm 4.217553 -0.000000 13.542018
LeftHand 2.031369 -0.000000 -6.189200
LeftHandThumb1 -26.253704 0.000000 33.147579
RightShoulder -5.336158 3.940710 5.047370
RightArm -9.200165 61.615606 66.345276
RightForeArm 15.405726 -0.000000 106.809837
RightHand 3.158088 -0.000000 -33.262977
RightHandThumb1 -24.326973 -0.000000 -32.862282
LeftUpLeg 12.650827 14.634025 7.194590
LeftLeg -9.459971 -0.000000 0.000000
LeftFoot -15.921884 27.721413 -7.762412
LeftToeBase 23.064674 -0.000000 -0.000000
RightUpLeg 8.866242 -4.446788 3.879718
RightLeg -4.379951 -0.000000 0.000000
RightFoot -4.668324 -27.409492 4.097716
RightToeBase 13.769750 -0.000000 -0.000000
2649
root -5.176919 35.201863 -9.746021 -2.068000 -5.601863 -6.137772
Spine -1.602532 -2.480269 10.269051
Head 7.803194 1.561873 -8.177556
LeftShoulder -19.492068 14.865125 -16.976982
LeftArm 19.028017 2.254031 -74.478419
LeftForeArm 4.206246 0.000000 13.527113
LeftHand 2.020631 -0.000000 -6.245246
LeftHandThumb1 -26.253704 0.000000 33.147579
RightShoulder -5.307313 3.911128 5.120738
RightArm -8.960378 61.474373 66.610418
RightForeArm 15.217459 -0.000000 106.737091
RightHand 3.247284 0.000000 -33.089713
RightHandThumb1 -24.326973 -0.000000 -32.862282
LeftUpLeg 12.660125 14.653300 7.201529
LeftLeg -9.450489 -0.000000 0.000000
LeftFoot -15.931120 27.726851 -7.767010
LeftToeBase 23.086216 -0.000000 -0.000000
RightUpLeg 8.871611 -4.412279 3.884393
RightLeg -4.385505 -0.000000 0.000000
RightFoot -4.659030 -27.415693 4.072503
RightToeBase 13.750019 -0.000000 -0.000000
2650
root -5.177046 35.202435 -9.748351 -2.064107 -5.634800 -6.140644
Spine -1.581413 -2.492622 10.248615
Head 7.788955 1.503498 -8.101375
LeftShoulder -19.497133 14.868214 -16.964255
LeftArm 19.000796 2.305683 -74.503553
LeftForeArm 4.192785 0.000000 13.512712
LeftHand 1.968379 -0.000000 -6.255234
LeftHandThumb1 -26.253704 0.000000 33.147579
RightShoulder -5.238274 3.942260 5.162872
RightArm -8.806709 61.393338 66.817936
RightForeArm 14.757407 -0.000000 106.612889
RightHand 3.181085 0.000000 -32.895275
RightHandThumb1 -24.326973 -0.000000 -32.862282
LeftUpLeg 12.656367 14.680337 7.204923
LeftLeg -9.443721 -0.000000 0.000000
LeftFoot -15.923725 27.732290 -7.767071
LeftToeBase 23.023923 -0.000000 -0.000000
RightUpLeg 8.861156 -4.396345 3.887232
RightLeg -4.383921 -0.000000 0.000000
RightFoot -4.645328 -27.398444 4.062792
RightToeBase 13.740395 -0.000000 -0.000000
2651
root -5.175756 35.202817 -9.748467 -2.062783 -5.650099 -6.149090
Spine -1.567270 -2.521094 10.242117
Head 7.783823 1.426577 -8.039870
LeftShoulder -19.495966 14.891708 -16.963063
LeftArm 18.989145 2.324095 -74.534903
LeftForeArm 4.203829 -0.000000 13.496086
LeftHand 1.958626 -0.000000 -6.211817
LeftHandThumb1 -26.253704 0.000000 33.147579
RightShoulder -5.177096 3.961369 5.171503
RightArm -8.566533 61.298506 67.134993
RightForeArm 14.178893 0.000000 106.407807
RightHand 3.318415 -0.000000 -32.756433
RightHandThumb1 -24.326973 -0.000000 -32.862282
LeftUpLeg 12.655355 14.688872 7.211345
LeftLeg -9.435031 -0.000000 0.000000
LeftFoot -15.944810 27.732935 -7.769433
LeftToeBase 23.055345 -0.000000 -0.000000
RightUpLeg 8.861227 -4.409394 3.891668
RightLeg -4.390909 -0.000000 0.000000
RightFoot -4.633089 -27.377398 4.090643
RightToeBase 13.713985 -0.000000 -0.000000
